# Blender 4.0.2
# www.blender.org
mtllib estante2.mtl
o Cubo.001
v -0.745618 0.838507 1.692301
v -0.745618 1.743801 1.692301
v -0.745618 0.838507 -1.692301
v -0.745618 1.743801 -1.692301
v 0.745618 0.838507 1.692301
v 0.745618 1.743801 1.692301
v 0.745618 0.838507 -1.692301
v 0.745618 1.743801 -1.692301
v -1.370939 -0.841517 2.226377
v -1.489498 0.771061 2.410542
v -1.370939 -0.841517 -2.223168
v -1.489586 0.777228 -2.410542
v 1.370939 -0.841517 2.226377
v 1.489498 0.771061 2.410542
v 1.370939 -0.841517 -2.223168
v 1.486410 0.777228 -2.410542
v -1.370939 -0.841517 1.686986
v -1.555155 0.767686 1.609499
v 1.370939 -0.841517 1.686986
v 1.555155 0.775079 1.629703
v -1.555155 0.767686 -1.609250
v 1.370939 -0.841517 -1.686737
v -1.370939 -0.841517 -1.686737
v 1.555155 0.775079 -1.626116
v -1.555155 -0.767217 1.608606
v -1.482960 -0.775975 2.410542
v 1.482884 -0.767444 -2.410542
v -1.482884 -0.767444 -2.410542
v 1.555155 -0.789812 -1.628361
v 1.482960 -0.775975 2.410542
v -1.555155 -0.767217 -1.608356
v 1.555155 -0.789812 1.628922
v 1.370939 -0.985407 1.686986
v -1.370939 -0.985407 1.686986
v 1.370939 -0.985407 -1.686737
v -1.370939 -0.985407 -1.686737
v -1.370939 -0.985407 2.226377
v 1.370939 -0.985407 -2.223168
v -1.370939 -0.985407 -2.223168
v 1.370939 -0.985407 2.226377
v -1.489498 0.035528 2.410542
v -1.489586 0.025383 -2.410542
v 1.486410 0.025383 -2.410542
v 1.489498 0.035528 2.410542
v 1.555155 0.037876 1.629703
v -1.555155 0.040254 1.609499
v 1.555155 0.037876 -1.626116
v -1.555155 0.040254 -1.609250
v 1.555155 0.841517 -1.686737
v 1.555155 0.841517 1.686986
v 1.555155 -0.041576 1.628922
v 1.555155 -0.041576 -1.628361
v 1.555155 0.000000 1.686986
v 1.555155 -0.841517 1.686986
v 1.555155 -0.841517 -1.686737
v 1.555155 0.000000 -1.686737
v -1.555155 0.839360 -2.410542
v 1.555155 0.839360 -2.410542
v -1.482884 -0.042775 -2.410542
v 1.482884 -0.042775 -2.410542
v -1.555155 -0.012128 -2.410542
v -1.555155 -0.841517 -2.410542
v 1.555155 -0.841517 -2.410542
v 1.555155 -0.012128 -2.410542
v -1.555155 0.841517 1.686986
v -1.555155 0.841517 -1.686737
v -1.555155 -0.047763 1.608606
v -1.555155 -0.047763 -1.608356
v -1.555155 -0.841517 -1.686737
v -1.555155 -0.841517 1.686986
v -1.555155 0.000000 1.686986
v -1.555155 0.000000 -1.686737
v -1.482960 -0.039066 2.410542
v -1.555155 0.841517 2.410542
v 1.555155 0.841517 2.410542
v 1.482960 -0.039066 2.410542
v 1.555155 0.000000 2.410542
v 1.555155 -0.841517 2.410542
v -1.555155 -0.841517 2.410542
v -1.555155 0.000000 2.410542
vn -1.0000 -0.0000 -0.0000
vn -0.0000 -0.0000 -1.0000
vn 1.0000 -0.0000 -0.0000
vn -0.0000 -0.0000 1.0000
vn -0.0000 -1.0000 -0.0000
vn -0.0000 1.0000 -0.0000
vn -0.0000 1.0000 -0.0030
vt 0.375000 0.000000
vt 0.625000 0.000000
vt 0.625000 0.250000
vt 0.375000 0.250000
vt 0.625000 0.500000
vt 0.375000 0.500000
vt 0.625000 0.750000
vt 0.375000 0.750000
vt 0.625000 1.000000
vt 0.375000 1.000000
vt 0.125000 0.500000
vt 0.125000 0.750000
vt 0.875000 0.500000
vt 0.875000 0.750000
vt 0.500000 0.212467
vt 0.625000 0.212467
vt 0.500000 0.250000
vt 0.500000 0.712480
vt 0.625000 0.712480
vt 0.500000 0.750000
vt 0.875000 0.712480
vt 0.625000 0.537533
vt 0.875000 0.537533
vt 0.500000 0.000000
vt 0.625000 0.037520
vt 0.500000 0.037520
vt 0.500000 0.500000
vt 0.500000 0.537533
vt 0.139807 0.712480
vt 0.139807 0.735193
vt 0.125000 0.712480
vt 0.360193 0.514807
vt 0.139807 0.514807
vt 0.360193 0.537533
vt 0.375000 0.537533
vt 0.360193 0.735193
vt 0.139807 0.537533
vt 0.125000 0.537533
vt 0.360193 0.712480
vt 0.375000 0.712480
vt 0.375000 0.037520
vt 0.375000 0.212467
vt 0.620818 0.708298
vt 0.620818 0.541715
vt 0.504182 0.708298
vt 0.504182 0.541715
vt 0.378991 0.708489
vt 0.496009 0.708489
vt 0.378991 0.541524
vt 0.496009 0.541524
vt 0.615771 0.490771
vt 0.615771 0.259229
vt 0.509229 0.259229
vt 0.509229 0.490771
vt 0.494106 0.255809
vt 0.380894 0.255809
vt 0.380894 0.494191
vt 0.494106 0.494191
vt 0.620982 0.208449
vt 0.620982 0.041538
vt 0.504018 0.041538
vt 0.504018 0.208449
vt 0.379064 0.041585
vt 0.379064 0.208402
vt 0.495935 0.041585
vt 0.495935 0.208402
vt 0.505277 0.994723
vt 0.619723 0.994723
vt 0.500000 1.000000
vt 0.619723 0.755277
vt 0.505277 0.755277
vt 0.494197 0.755803
vt 0.380803 0.755803
vt 0.380803 0.994197
vt 0.494197 0.994197
s 0
usemtl Madera
f 1/1/1 2/2/1 4/3/1 3/4/1
f 3/4/2 4/3/2 8/5/2 7/6/2
f 7/6/3 8/5/3 6/7/3 5/8/3
f 5/8/4 6/7/4 2/9/4 1/10/4
f 3/11/5 7/6/5 5/8/5 1/12/5
f 8/5/6 4/13/6 2/14/6 6/7/6
f 72/15/1 66/16/1 57/3/1 61/17/1
f 53/18/3 50/19/3 75/7/3 77/20/3
f 50/19/6 65/21/6 74/14/6 75/7/6
f 49/22/6 66/23/6 65/21/6 50/19/6
f 80/24/1 74/2/1 65/25/1 71/26/1
f 64/27/3 58/5/3 49/22/3 56/28/3
f 58/5/7 57/13/7 66/23/7 49/22/7
f 17/29/5 9/30/5 79/12/5 70/31/5
f 15/32/5 11/33/5 62/11/5 63/6/5
f 22/34/5 15/32/5 63/6/5 55/35/5
f 9/30/5 13/36/5 78/8/5 79/12/5
f 23/37/5 17/29/5 70/31/5 69/38/5
f 13/36/5 19/39/5 54/40/5 78/8/5
f 19/39/5 22/34/5 55/35/5 54/40/5
f 11/33/5 23/37/5 69/38/5 62/11/5
f 34/29/5 33/39/5 40/36/5 37/30/5
f 36/37/5 35/34/5 33/39/5 34/29/5
f 39/33/5 38/32/5 35/34/5 36/37/5
f 63/6/3 64/27/3 56/28/3 55/35/3
f 79/1/1 80/24/1 71/26/1 70/41/1
f 54/40/3 53/18/3 77/20/3 78/8/3
f 69/42/1 72/15/1 61/17/1 62/4/1
f 20/43/3 24/44/3 49/22/3 50/19/3
f 45/45/3 20/43/3 50/19/3 53/18/3
f 24/44/3 47/46/3 56/28/3 49/22/3
f 47/46/3 45/45/3 53/18/3 56/28/3
f 32/47/3 51/48/3 53/18/3 54/40/3
f 29/49/3 32/47/3 54/40/3 55/35/3
f 52/50/3 29/49/3 55/35/3 56/28/3
f 51/48/3 52/50/3 56/28/3 53/18/3
f 16/51/2 12/52/2 57/3/2 58/5/2
f 12/52/2 42/53/2 61/17/2 57/3/2
f 43/54/2 16/51/2 58/5/2 64/27/2
f 42/53/2 43/54/2 64/27/2 61/17/2
f 59/55/2 28/56/2 62/4/2 61/17/2
f 28/56/2 27/57/2 63/6/2 62/4/2
f 27/57/2 60/58/2 64/27/2 63/6/2
f 60/58/2 59/55/2 61/17/2 64/27/2
f 21/59/1 18/60/1 65/25/1 66/16/1
f 18/60/1 46/61/1 71/26/1 65/25/1
f 48/62/1 21/59/1 66/16/1 72/15/1
f 46/61/1 48/62/1 72/15/1 71/26/1
f 25/63/1 31/64/1 69/42/1 70/41/1
f 67/65/1 25/63/1 70/41/1 71/26/1
f 31/64/1 68/66/1 72/15/1 69/42/1
f 68/66/1 67/65/1 71/26/1 72/15/1
f 41/67/4 10/68/4 74/9/4 80/69/4
f 10/68/4 14/70/4 75/7/4 74/9/4
f 14/70/4 44/71/4 77/20/4 75/7/4
f 44/71/4 41/67/4 80/69/4 77/20/4
f 76/72/4 30/73/4 78/8/4 77/20/4
f 30/73/4 26/74/4 79/10/4 78/8/4
f 26/74/4 73/75/4 80/69/4 79/10/4
f 73/75/4 76/72/4 77/20/4 80/69/4
o Cubo.002
v -1.555155 0.767686 1.609499
v -1.555155 0.767686 -1.609250
v -1.555155 0.040254 1.609499
v -1.555155 0.040254 -1.609250
v -0.087655 0.767686 1.609499
v -0.087655 0.767686 -1.609250
v -0.087655 0.040254 1.609499
v -0.087655 0.040254 -1.609250
vn -0.0000 -0.0000 -1.0000
vn -1.0000 -0.0000 -0.0000
vn -0.0000 -0.0000 1.0000
vn -0.0000 -1.0000 -0.0000
vn -0.0000 1.0000 -0.0000
vt -0.100000 0.105273
vt -0.100000 0.894727
vt 0.900000 0.894727
vt 0.900000 0.105273
vt 0.016810 0.105273
vt 0.016810 0.894727
vt 0.983190 0.894727
vt 0.983190 0.105273
vt -0.100000 0.032831
vt -0.100000 0.967169
vt 0.900000 0.967169
vt 0.900000 0.032831
s 0
usemtl Aluminio_Cepillado
f 83/76/8 81/77/8 85/78/8 87/79/8
f 87/80/9 85/81/9 86/82/9 88/83/9
f 82/77/10 84/76/10 88/79/10 86/78/10
f 81/84/11 82/85/11 86/86/11 85/87/11
f 84/85/12 83/84/12 87/87/12 88/86/12
o Cubo.003
v -1.555155 -0.767217 1.608606
v -1.555155 -0.767217 -1.608356
v -1.555155 -0.047763 1.608606
v -1.555155 -0.047763 -1.608356
v -0.097840 -0.767217 -1.608356
v -0.097840 -0.767217 1.608606
v -0.097840 -0.047763 1.608606
v -0.097840 -0.047763 -1.608356
vn -0.0000 -1.0000 -0.0000
vn -1.0000 -0.0000 -0.0000
vn -0.0000 -0.0000 -1.0000
vn -0.0000 -0.0000 1.0000
vn -0.0000 1.0000 -0.0000
vt -0.100000 0.029828
vt -0.100000 0.970172
vt 0.900000 0.970172
vt 0.900000 0.029828
vt 0.013703 0.106874
vt 0.013703 0.893126
vt 0.986297 0.893126
vt 0.986297 0.106874
vt -0.100000 0.106874
vt -0.100000 0.893126
vt 0.900000 0.893126
vt 0.900000 0.106874
s 0
usemtl Aluminio_Cepillado
f 91/88/13 92/89/13 96/90/13 95/91/13
f 94/92/14 95/93/14 96/94/14 93/95/14
f 89/96/15 91/97/15 95/98/15 94/99/15
f 92/97/16 90/96/16 93/99/16 96/98/16
f 90/89/17 89/88/17 94/91/17 93/90/17
o Cubo.004
v -1.489498 0.771061 2.410542
v 1.489498 0.771061 2.410542
v -1.489498 0.035528 2.410542
v 1.489498 0.035528 2.410542
v -1.489498 0.035528 1.767810
v -1.489498 0.771061 1.767810
v 1.489498 0.771061 1.767810
v 1.489498 0.035528 1.767810
vn -1.0000 -0.0000 -0.0000
vn -0.0000 -0.0000 1.0000
vn 1.0000 -0.0000 -0.0000
vn -0.0000 1.0000 -0.0000
vn -0.0000 -1.0000 -0.0000
vt 0.442964 0.303386
vt 0.442964 0.696614
vt 0.538024 0.696614
vt 0.538024 0.303386
vt 1.000000 0.303386
vt 1.000000 0.696614
vt 0.000000 0.696614
vt 0.000000 0.303386
vt 0.000000 0.444855
vt 1.000000 0.444855
vt 1.000000 0.536763
vt 0.000000 0.536763
s 0
usemtl Aluminio_Cepillado
f 100/100/18 98/101/18 103/102/18 104/103/18
f 104/104/19 103/105/19 102/106/19 101/107/19
f 97/101/20 99/100/20 101/103/20 102/102/20
f 99/108/21 100/109/21 104/110/21 101/111/21
f 98/109/22 97/108/22 102/111/22 103/110/22
o Cubo.005
v -1.482960 -0.775975 2.410542
v 1.482960 -0.775975 2.410542
v -1.482960 -0.039066 2.410542
v 1.482960 -0.039066 2.410542
v 1.482960 -0.039066 1.773227
v 1.482960 -0.775975 1.773227
v -1.482960 -0.775975 1.773227
v -1.482960 -0.039066 1.773227
vn 1.0000 -0.0000 -0.0000
vn -0.0000 -0.0000 1.0000
vn -1.0000 -0.0000 -0.0000
vn -0.0000 -1.0000 -0.0000
vn -0.0000 1.0000 -0.0000
vt 0.443195 0.697851
vt 0.443195 0.302149
vt 0.537870 0.302149
vt 0.537870 0.697851
vt 1.000000 0.302149
vt 1.000000 0.697851
vt 0.000000 0.697851
vt 0.000000 0.302149
vt 1.000000 0.445079
vt 0.000000 0.445079
vt 0.000000 0.536614
vt 1.000000 0.536614
s 0
usemtl Aluminio_Cepillado
f 107/112/23 105/113/23 111/114/23 112/115/23
f 110/116/24 109/117/24 112/118/24 111/119/24
f 106/113/25 108/112/25 109/115/25 110/114/25
f 108/120/26 107/121/26 112/122/26 109/123/26
f 105/121/27 106/120/27 110/123/27 111/122/27
o Cubo.006
v 1.555155 -0.789812 -1.628361
v 1.555155 -0.789812 1.628922
v 1.555155 -0.041576 1.628922
v 1.555155 -0.041576 -1.628361
v 0.105117 -0.041576 1.628922
v 0.105117 -0.789812 1.628922
v 0.105117 -0.789812 -1.628361
v 0.105117 -0.041576 -1.628361
vn -0.0000 -1.0000 -0.0000
vn 1.0000 -0.0000 -0.0000
vn -0.0000 1.0000 -0.0000
vn -0.0000 -0.0000 1.0000
vn -0.0000 -0.0000 -1.0000
vt 1.100000 0.978455
vt 1.100000 0.021545
vt 0.100000 0.021545
vt 0.100000 0.978455
vt 0.994863 0.089094
vt 0.994863 0.910906
vt 0.005137 0.910906
vt 0.005137 0.089094
vt 1.100000 0.089094
vt 1.100000 0.910906
vt 0.100000 0.910906
vt 0.100000 0.089094
s 0
usemtl Aluminio_Cepillado
f 116/124/28 115/125/28 117/126/28 120/127/28
f 119/128/29 120/129/29 117/130/29 118/131/29
f 114/125/30 113/124/30 119/127/30 118/126/30
f 113/132/31 116/133/31 120/134/31 119/135/31
f 115/133/32 114/132/32 118/135/32 117/134/32
o Cubo.007
v 1.555155 0.775079 1.629703
v 1.555155 0.775079 -1.626116
v 1.555155 0.037876 1.629703
v 1.555155 0.037876 -1.626116
v 0.100389 0.775079 -1.626116
v 0.100389 0.775079 1.629703
v 0.100389 0.037876 1.629703
v 0.100389 0.037876 -1.626116
vn -0.0000 -0.0000 1.0000
vn 1.0000 -0.0000 -0.0000
vn -0.0000 -1.0000 -0.0000
vn -0.0000 1.0000 -0.0000
vn -0.0000 -0.0000 -1.0000
vt 1.100000 0.096469
vt 1.100000 0.903531
vt 0.100000 0.903531
vt 0.100000 0.096469
vt 0.993033 0.096469
vt 0.993033 0.903531
vt 0.006967 0.903531
vt 0.006967 0.096469
vt 1.100000 0.976685
vt 1.100000 0.023315
vt 0.100000 0.023315
vt 0.100000 0.976685
s 0
usemtl Aluminio_Cepillado
f 124/136/33 122/137/33 125/138/33 128/139/33
f 128/140/34 125/141/34 126/142/34 127/143/34
f 122/144/35 121/145/35 126/146/35 125/147/35
f 123/145/36 124/144/36 128/147/36 127/146/36
f 121/137/37 123/136/37 127/139/37 126/138/37
o Cubo.008
v -1.489586 0.777228 -2.410542
v 1.486410 0.777228 -2.410542
v -1.489586 0.025383 -2.410542
v 1.486410 0.025383 -2.410542
v -1.489586 0.777228 -1.740220
v 1.486410 0.777228 -1.740220
v -1.489586 0.050004 -1.740220
v 1.486410 0.050004 -1.740220
vn 1.0000 -0.0000 -0.0000
vn -0.0000 -0.0000 -1.0000
vn -1.0000 -0.0000 -0.0000
vn -0.0000 -1.0000 -0.0000
vn -0.0000 0.9993 -0.0367
vt 0.559544 0.294870
vt 0.559544 0.697224
vt 0.460304 0.697224
vt 0.460304 0.308046
vt 0.000000 0.308046
vt 0.000000 0.697224
vt 1.000000 0.697224
vt 1.000000 0.308046
vt 0.000000 0.557570
vt 1.000000 0.557570
vt 1.000000 0.461620
vt 0.000000 0.461620
s 0
usemtl Aluminio_Cepillado
f 131/148/38 129/149/38 133/150/38 135/151/38
f 135/152/39 133/153/39 134/154/39 136/155/39
f 130/149/40 132/148/40 136/151/40 134/150/40
f 129/156/41 130/157/41 134/158/41 133/159/41
f 132/157/42 131/156/42 135/159/42 136/158/42
o Cubo.009
v 1.482884 -0.767444 -2.410542
v -1.482884 -0.767444 -2.410542
v -1.482884 -0.042775 -2.410542
v 1.482884 -0.042775 -2.410542
v -1.482884 -0.074406 -1.744032
v -1.482884 -0.767444 -1.744032
v 1.482884 -0.767444 -1.744032
v 1.482884 -0.074406 -1.744032
vn -1.0000 -0.0000 -0.0000
vn -0.0000 -0.0000 -1.0000
vn 1.0000 -0.0000 -0.0000
vn -0.0000 -0.9989 -0.0474
vn -0.0000 1.0000 -0.0000
vt 0.559410 0.699670
vt 0.559410 0.310522
vt 0.460393 0.310522
vt 0.460393 0.682684
vt 0.000000 0.310522
vt 0.000000 0.682684
vt 1.000000 0.682684
vt 1.000000 0.310522
vt 0.000000 0.557440
vt 1.000000 0.557440
vt 1.000000 0.461707
vt 0.000000 0.461707
s 0
usemtl Aluminio_Cepillado
f 140/160/43 137/161/43 143/162/43 144/163/43
f 142/164/44 141/165/44 144/166/44 143/167/44
f 138/161/45 139/160/45 141/163/45 142/162/45
f 139/168/46 140/169/46 144/170/46 141/171/46
f 137/169/47 138/168/47 142/171/47 143/170/47
o Cubo.010
v -1.370939 -0.841517 2.226377
v -1.370939 -0.841517 -2.223168
v 1.370939 -0.841517 2.226377
v 1.370939 -0.841517 -2.223168
v -1.370939 -0.841517 1.686986
v 1.370939 -0.841517 1.686986
v 1.370939 -0.841517 -1.686737
v -1.370939 -0.841517 -1.686737
v 1.370939 -0.985407 1.686986
v -1.370939 -0.985407 1.686986
v 1.370939 -0.985407 -1.686737
v -1.370939 -0.985407 -1.686737
v -1.370939 -0.985407 2.226377
v 1.370939 -0.985407 -2.223168
v -1.370939 -0.985407 -2.223168
v 1.370939 -0.985407 2.226377
vn 1.0000 -0.0000 -0.0000
vn -1.0000 -0.0000 -0.0000
vn -0.0000 -0.0000 1.0000
vn -0.0000 -0.0000 -1.0000
vt 0.090097 0.878754
vt 0.090097 0.999970
vt 0.000030 0.999970
vt 0.000030 0.878754
vt 0.090097 0.879419
vt 0.090097 0.999970
vt 0.000030 0.999970
vt 0.000030 0.879419
vt 0.090097 0.000030
vt 0.090097 0.121246
vt 0.000030 0.121246
vt 0.000030 0.000030
vt 0.064424 0.000025
vt 0.064424 0.999974
vt 0.000025 0.999974
vt 0.000025 0.000025
vt 0.064424 0.000025
vt 0.064424 0.999975
vt 0.000025 0.999975
vt 0.000026 0.000025
vt 0.090097 0.120581
vt 0.000030 0.120581
vt 0.090097 0.000030
vt 0.000030 0.000030
s 0
usemtl Madera
f 150/172/48 147/173/48 160/174/48 153/175/48
f 152/176/49 146/177/49 159/178/49 156/179/49
f 145/180/49 149/181/49 154/182/49 157/183/49
f 147/184/50 145/185/50 157/186/50 160/187/50
f 146/188/51 148/189/51 158/190/51 159/191/51
f 151/192/48 150/172/48 153/175/48 155/193/48
f 149/181/49 152/176/49 156/179/49 154/182/49
f 148/194/48 151/192/48 155/193/48 158/195/48
