# Blender 4.0.2
# www.blender.org
mtllib microndas.mtl
o Cube
v 0.779889 0.945053 -1.825441
v 0.779889 -0.945053 -1.825441
v 0.779889 0.945053 1.825441
v 0.779889 -0.945053 1.825441
v -0.779889 1.000000 -1.880388
v -0.575068 -1.000000 -1.675567
v -0.779889 1.000000 1.880388
v -0.575068 -1.000000 1.675567
v 0.779889 1.000000 -1.880388
v 0.575068 -1.000000 -1.675567
v 0.779889 1.000000 1.880388
v 0.575068 -1.000000 1.675567
v 0.861695 0.945053 -1.825441
v 0.861695 -0.945053 -1.825441
v 0.861695 0.945053 1.825441
v 0.861695 -0.945053 1.825441
v -0.779889 -1.000000 -1.880388
v -0.779889 -1.000000 1.880388
v 0.779889 -1.000000 -1.880388
v 0.779889 -1.000000 1.880388
v -0.575068 -1.103838 -1.675567
v -0.575068 -1.103838 1.675567
v 0.575068 -1.103838 -1.675567
v 0.575068 -1.103838 1.675567
v 0.855775 -1.000000 1.877670
v 0.855775 1.000000 1.877670
v 0.899294 -0.956480 -0.708416
v 0.899294 0.956480 -0.708416
v 1.423217 -0.881001 1.795521
v 1.423217 0.881001 1.795521
v 1.423217 -0.881001 -0.626267
v 1.423217 0.881001 -0.626267
v 1.379697 0.956480 -0.708416
v 1.379697 -0.956480 -0.708416
v 1.423217 -1.000000 1.877670
v 1.423217 1.000000 1.877670
v 0.855775 1.000000 -0.708416
v 0.855775 -1.000000 -0.708416
v 1.423217 -1.000000 -0.708416
v 1.423217 1.000000 -0.708416
v 0.899294 0.956480 -0.744050
v 0.899294 -0.956480 -0.744050
v 1.379697 -0.956480 -0.744050
v 1.379697 0.956480 -0.744050
v 1.378409 0.881001 -0.626267
v 1.378409 -0.881001 -0.626267
v 1.378409 -0.881001 1.795521
v 1.378409 0.881001 1.795521
v 0.857785 -1.000000 -0.736640
v 0.857785 1.000000 -0.736640
v 0.857785 -1.000000 -1.876703
v 0.857785 1.000000 -1.876703
v 1.426328 -0.785740 -0.904194
v 1.427841 -0.362546 -0.944786
v 1.426328 -0.785740 -1.709149
v 1.426328 -0.362546 -1.668052
v 1.426328 1.000000 -1.876703
v 1.426328 -1.000000 -1.876703
v 1.426328 -1.000000 -0.736640
v 1.426328 1.000000 -0.736640
v 1.426328 0.759202 -1.688959
v 1.426328 -0.860442 -1.797151
v 1.426328 -0.860442 -0.816193
v 1.426328 0.759202 -0.924384
v 1.467203 -0.463786 -1.709149
v 1.467203 -0.785740 -1.709149
v 1.467203 -0.785740 -0.904194
v 1.467203 -0.463786 -0.904194
v 1.426328 0.860442 -1.797151
v 1.426328 0.860442 -0.816193
v 1.426328 -0.463786 -1.709149
v 1.426328 -0.463786 -0.904194
vn -0.0000 1.0000 -0.0000
vn -0.0000 -0.0000 1.0000
vn -1.0000 -0.0000 -0.0000
vn -0.0000 -0.0000 -1.0000
vn 1.0000 -0.0000 -0.0000
vn -0.0000 -1.0000 -0.0000
vn 1.0000 0.0007 -0.0010
vn 1.0000 -0.0075 -0.0010
vn 0.9999 0.0002 0.0102
vt 0.625000 0.500000
vt 0.875000 0.500000
vt 0.875000 0.750000
vt 0.625000 0.750000
vt 0.375000 0.750000
vt 0.625000 1.000000
vt 0.375000 1.000000
vt 0.375000 0.000000
vt 0.625000 0.000000
vt 0.625000 0.250000
vt 0.375000 0.250000
vt 0.342171 0.736384
vt 0.157829 0.736384
vt 0.618132 0.503653
vt 0.618132 0.746347
vt 0.375000 0.500000
vt 0.381868 0.503653
vt 0.381868 0.746347
vt 0.157829 0.513616
vt 0.125000 0.750000
vt 0.125000 0.500000
vt 0.342171 0.513616
vt 0.000000 0.000000
vt 0.000019 0.968217
vt 0.000019 0.031783
vt 0.034989 0.000019
vt 0.034989 0.999981
vt 0.997774 0.432081
vt 0.996820 0.994672
vt 0.002226 0.993653
vt 0.003180 0.431061
vt 0.803965 0.290552
vt 0.960138 0.290552
vt 0.964653 0.645228
vt 0.799560 0.645228
s 0
usemtl Material
f 9/1/1 5/2/1 7/3/1 11/4/1
f 20/5/2 11/4/2 7/6/2 18/7/2
f 18/8/3 7/9/3 5/10/3 17/11/3
f 12/12/2 8/13/2 22/13/2 24/12/2
f 1/14/1 3/15/1 15/15/1 13/14/1
f 17/11/4 5/10/4 9/1/4 19/16/4
f 1/14/5 2/17/5 19/16/5 9/1/5
f 4/18/5 3/15/5 11/4/5 20/5/5
f 3/15/5 1/14/5 9/1/5 11/4/5
f 2/17/5 4/18/5 20/5/5 19/16/5
f 14/17/5 13/14/5 15/15/5 16/18/5
f 2/17/4 1/14/4 13/14/4 14/17/4
f 4/18/6 2/17/6 14/17/6 16/18/6
f 3/15/2 4/18/2 16/18/2 15/15/2
f 6/19/6 8/13/6 18/20/6 17/21/6
f 10/22/6 6/19/6 17/21/6 19/16/6
f 8/13/6 12/12/6 20/5/6 18/20/6
f 12/12/6 10/22/6 19/16/6 20/5/6
f 21/19/6 23/22/6 24/12/6 22/13/6
f 8/13/3 6/19/3 21/19/3 22/13/3
f 10/22/5 12/12/5 24/12/5 23/22/5
f 6/19/4 10/22/4 23/22/4 21/19/4
f 28/23/4 27/23/4 38/23/4 37/23/4
f 42/23/4 41/23/4 44/23/4 43/23/4
f 27/23/3 28/23/3 41/23/3 42/23/3
usemtl Material.001
f 25/23/3 26/23/3 37/23/3 38/23/3
f 33/23/5 34/23/5 43/23/5 44/23/5
f 32/23/6 30/23/6 48/23/6 45/23/6
f 27/23/4 34/23/4 39/23/4 38/23/4
f 33/23/4 28/23/4 37/23/4 40/23/4
f 34/23/4 33/23/4 40/23/4 39/23/4
f 34/23/6 27/23/6 42/23/6 43/23/6
f 28/23/1 33/23/1 44/23/1 41/23/1
f 46/28/5 45/29/5 48/30/5 47/31/5
f 31/23/2 32/23/2 45/23/2 46/23/2
f 30/23/4 29/23/4 47/23/4 48/23/4
f 29/23/1 31/23/1 46/23/1 47/23/1
f 49/23/3 50/23/3 52/23/3 51/23/3
f 59/23/2 60/23/2 50/23/2 49/23/2
f 55/23/4 71/23/4 65/23/4 66/23/4
f 53/23/6 55/23/6 66/23/6 67/23/6
usemtl Material.003
f 54/32/7 56/33/7 61/34/7 64/35/7
usemtl Material.004
f 35/23/2 36/23/2 26/23/2 25/23/2
f 38/23/6 39/23/6 35/23/6 25/23/6
f 40/23/1 37/23/1 26/23/1 36/23/1
f 32/23/5 31/23/5 39/23/5 40/23/5
f 31/23/5 29/23/5 35/23/5 39/23/5
f 30/24/5 32/25/5 40/26/5 36/27/5
f 29/23/5 30/23/5 36/23/5 35/23/5
f 51/23/4 52/23/4 57/23/4 58/23/4
f 71/23/1 72/23/1 68/23/1 65/23/1
f 51/23/6 58/23/6 59/23/6 49/23/6
f 57/23/1 52/23/1 50/23/1 60/23/1
f 69/23/5 62/23/5 58/23/5 57/23/5
f 62/23/5 63/23/5 59/23/5 58/23/5
f 70/23/5 69/23/5 57/23/5 60/23/5
f 63/23/5 70/23/5 60/23/5 59/23/5
f 71/23/5 55/23/5 62/23/5 69/23/5
f 55/23/5 53/23/5 63/23/5 62/23/5
f 53/23/5 72/23/5 70/23/5 63/23/5
f 66/23/5 65/23/5 68/23/5 67/23/5
f 72/23/2 53/23/2 67/23/2 68/23/2
f 64/23/5 61/23/5 69/23/5 70/23/5
f 56/23/8 54/23/8 72/23/8 71/23/8
f 61/23/5 56/23/5 71/23/5 69/23/5
f 54/23/9 64/23/9 70/23/9 72/23/9
