# Blender 4.0.2
# www.blender.org
mtllib espejo.mtl
o espejo
v 1.234219 0.094940 3.386189
v -1.234219 0.094940 3.386189
v -1.234219 0.094940 -3.386189
v 1.234219 0.094940 -3.386189
v 1.234219 0.094940 3.386189
v -1.234219 0.094940 3.386189
v -1.234219 0.094940 -3.386189
v 1.234219 0.094940 -3.386189
v 1.582332 -0.000000 -3.734303
v 1.582332 0.000000 3.734303
v 1.582332 0.063294 3.734303
v 1.582332 0.063293 -3.734303
v -1.582332 0.000000 3.734303
v -1.582332 0.063294 3.734303
v -1.582332 -0.000000 -3.734303
v -1.582332 0.063293 -3.734303
v 1.329159 0.094940 3.481129
v 1.329159 0.094940 -3.481129
v -1.329159 0.094940 3.481129
v -1.329159 0.094940 -3.481129
v 1.329159 0.079117 3.481129
v 1.329159 0.079116 -3.481129
v -1.329159 0.079117 3.481129
v -1.329159 0.079116 -3.481129
vn -0.0000 1.0000 -0.0000
vn 1.0000 -0.0000 -0.0000
vn -0.0000 -0.0000 1.0000
vn -1.0000 -0.0000 -0.0000
vn -0.0000 -0.0000 -1.0000
vn 0.1240 0.9923 -0.0000
vn -0.0000 0.9923 0.1240
vn -0.1240 0.9923 -0.0000
vn -0.0000 0.9923 -0.1240
vn 0.1644 0.9864 -0.0000
vn -0.0000 0.9864 0.1644
vn -0.1644 0.9864 -0.0000
vn -0.0000 0.9864 -0.1644
vn -0.0000 -1.0000 -0.0000
vt -9.250000 -26.250000
vt 10.250000 -26.250000
vt 10.250000 27.250000
vt -9.250000 27.250000
vt -29.000000 0.125000
vt 30.000000 0.125000
vt 30.000000 0.625000
vt -29.000000 0.625000
vt -12.000000 0.125000
vt 13.000000 0.125000
vt 13.000000 0.625000
vt -12.000000 0.625000
vt -12.000000 30.000000
vt -12.000000 -29.000000
vt -10.000000 -27.000000
vt -10.000000 28.000000
vt 13.000000 -29.000000
vt 11.000000 -27.000000
vt 13.000000 30.000000
vt 11.000000 28.000000
vt 28.000000 0.875000
vt -27.000000 0.875000
vt -27.000000 0.750000
vt 28.000000 0.750000
vt 11.000000 0.875000
vt -10.000000 0.875000
vt -10.000000 0.750000
vt 11.000000 0.750000
s 1
usemtl Material.001
f 1/1/1 4/4/1 3/3/1 2/2/1
s 0
usemtl Material.002
f 9/5/2 12/8/2 11/7/2 10/6/2
f 10/9/3 11/12/3 14/11/3 13/10/3
f 13/5/4 14/8/4 16/7/4 15/6/4
f 15/9/5 16/12/5 12/11/5 9/10/5
f 12/13/6 18/16/6 17/15/6 11/14/6
f 11/14/7 17/15/7 19/18/7 14/17/7
f 14/17/8 19/18/8 20/20/8 16/19/8
f 16/19/9 20/20/9 18/16/9 12/13/9
f 18/21/4 22/24/4 21/23/4 17/22/4
f 17/25/5 21/28/5 23/27/5 19/26/5
f 19/21/2 23/24/2 24/23/2 20/22/2
f 20/25/3 24/28/3 22/27/3 18/26/3
f 22/16/10 8/4/10 5/1/10 21/15/10
f 21/15/11 5/1/11 6/2/11 23/18/11
f 23/18/12 6/2/12 7/3/12 24/20/12
f 24/20/13 7/3/13 8/4/13 22/16/13
f 10/17/14 13/14/14 15/13/14 9/19/14
