# Blender 4.0.2
# www.blender.org
mtllib paredBano.mtl
o Cubo.006
v -2.023528 3.017376 0.047001
v -2.023528 3.017376 -0.046999
v -2.023528 5.017376 0.047001
v 4.277177 3.017376 0.047001
v 4.277177 3.017376 -0.046999
v 4.277177 5.017376 0.047001
v 4.277177 5.017376 -0.046999
v -2.023528 5.017376 -0.046999
v -2.023528 3.017376 0.047001
v -2.023528 3.017376 -0.046999
v -2.023528 5.017376 0.047001
v 4.277177 3.017376 0.047001
v 4.277177 3.017376 -0.046999
v 4.277177 5.017376 0.047001
v 4.277177 5.017376 -0.046999
v -2.023528 5.017376 -0.046999
vn -0.0000 -1.0000 -0.0000
vn -1.0000 -0.0000 -0.0000
vn -0.0000 -0.0000 1.0000
vn 1.0000 -0.0000 -0.0000
vn -0.0000 1.0000 -0.0000
vn -0.0000 -0.0000 -1.0000
vt 0.125000 0.500000
vt 0.375000 0.500000
vt 0.375000 0.750000
vt 0.125000 0.750000
vt 0.375000 0.000000
vt 0.625000 0.000000
vt 0.625000 0.250000
vt 0.375000 0.250000
vt 0.625000 0.750000
vt 0.625000 1.000000
vt 0.375000 1.000000
vt 0.625000 0.500000
vt 0.875000 0.500000
vt 0.875000 0.750000
s 1
usemtl Material.003
f 2/1/1 5/2/1 4/3/1 1/4/1
f 1/5/2 3/6/2 8/7/2 2/8/2
f 4/3/3 6/9/3 3/10/3 1/11/3
f 5/2/4 7/12/4 6/9/4 4/3/4
f 7/12/5 8/13/5 3/14/5 6/9/5
f 2/8/6 8/7/6 7/12/6 5/2/6
f 10/1/5 9/4/5 12/3/5 13/2/5
f 9/5/4 10/8/4 16/7/4 11/6/4
f 12/3/6 9/11/6 11/10/6 14/9/6
f 13/2/2 12/3/2 14/9/2 15/12/2
f 15/12/1 14/9/1 11/14/1 16/13/1
f 10/8/3 13/2/3 15/12/3 16/7/3
o Cubo.005
v -6.068664 -4.344719 0.045543
v -6.068664 -4.344719 -0.045542
v -6.068664 5.030613 0.045543
v -1.998753 -4.344719 0.045543
v -1.998753 -4.344719 -0.045542
v -1.998753 5.030613 0.045543
v -1.998753 5.030613 -0.045542
v -6.068664 5.030613 -0.045542
v -6.068664 -4.344719 0.045543
v -6.068664 -4.344719 -0.045542
v -6.068664 5.030613 0.045543
v -1.998753 -4.344719 0.045543
v -1.998753 -4.344719 -0.045542
v -1.998753 5.030613 0.045543
v -1.998753 5.030613 -0.045542
v -6.068664 5.030613 -0.045542
vn -1.0000 -0.0000 -0.0000
vn -0.0000 -1.0000 -0.0000
vn -0.0000 -0.0000 1.0000
vn 1.0000 -0.0000 -0.0000
vn -0.0000 1.0000 -0.0000
vn -0.0000 -0.0000 -1.0000
vt 0.375000 0.000000
vt 0.625000 0.000000
vt 0.625000 0.250000
vt 0.375000 0.250000
vt 0.125000 0.500000
vt 0.375000 0.500000
vt 0.375000 0.750000
vt 0.125000 0.750000
vt 0.625000 0.750000
vt 0.625000 1.000000
vt 0.375000 1.000000
vt 0.625000 0.500000
vt 0.875000 0.500000
vt 0.875000 0.750000
s 1
usemtl Material.003
f 17/15/7 19/16/7 24/17/7 18/18/7
f 18/19/8 21/20/8 20/21/8 17/22/8
f 20/21/9 22/23/9 19/24/9 17/25/9
f 21/20/10 23/26/10 22/23/10 20/21/10
f 23/26/11 24/27/11 19/28/11 22/23/11
f 18/18/12 24/17/12 23/26/12 21/20/12
f 25/15/10 26/18/10 32/17/10 27/16/10
f 26/19/11 25/22/11 28/21/11 29/20/11
f 28/21/12 25/25/12 27/24/12 30/23/12
f 29/20/7 28/21/7 30/23/7 31/26/7
f 31/26/8 30/23/8 27/28/8 32/27/8
f 26/18/9 29/20/9 31/26/9 32/17/9
o Cubo.002
v 4.252404 -4.361050 0.045543
v 4.252404 -4.361050 -0.045542
v 4.252404 5.014282 0.045543
v 8.322314 -4.361050 0.045543
v 8.322314 -4.361050 -0.045542
v 8.322314 5.014282 0.045543
v 8.322314 5.014282 -0.045542
v 4.252404 5.014282 -0.045542
v 4.252404 -4.361050 0.045543
v 4.252404 -4.361050 -0.045542
v 4.252404 5.014282 0.045543
v 8.322314 -4.361050 0.045543
v 8.322314 -4.361050 -0.045542
v 8.322314 5.014282 0.045543
v 8.322314 5.014282 -0.045542
v 4.252404 5.014282 -0.045542
vn -1.0000 -0.0000 -0.0000
vn -0.0000 -1.0000 -0.0000
vn -0.0000 -0.0000 1.0000
vn 1.0000 -0.0000 -0.0000
vn -0.0000 1.0000 -0.0000
vn -0.0000 -0.0000 -1.0000
vt 0.375000 0.000000
vt 0.625000 0.000000
vt 0.625000 0.250000
vt 0.375000 0.250000
vt 0.125000 0.500000
vt 0.375000 0.500000
vt 0.375000 0.750000
vt 0.125000 0.750000
vt 0.625000 0.750000
vt 0.625000 1.000000
vt 0.375000 1.000000
vt 0.625000 0.500000
vt 0.875000 0.500000
vt 0.875000 0.750000
s 1
usemtl Material.001
f 33/29/13 35/30/13 40/31/13 34/32/13
f 34/33/14 37/34/14 36/35/14 33/36/14
f 36/35/15 38/37/15 35/38/15 33/39/15
f 37/34/16 39/40/16 38/37/16 36/35/16
f 39/40/17 40/41/17 35/42/17 38/37/17
f 34/32/18 40/31/18 39/40/18 37/34/18
f 41/29/16 42/32/16 48/31/16 43/30/16
f 42/33/17 41/36/17 44/35/17 45/34/17
f 44/35/18 41/39/18 43/38/18 46/37/18
f 45/34/13 44/35/13 46/37/13 47/40/13
f 47/40/14 46/37/14 43/42/14 48/41/14
f 42/32/15 45/34/15 47/40/15 48/31/15
