# Blender 3.6.2
# www.blender.org
mtllib TV.mtl
o Cube
v -0.693566 0.086891 0.311120
v -0.376052 0.023825 -0.741158
v -0.693566 0.086891 0.492633
v -0.376052 0.023825 1.529564
v -0.815844 0.086891 0.311120
v -0.924909 0.023825 -0.741158
v -0.815844 0.086891 0.492633
v -0.924909 0.023825 1.529564
v -0.376052 0.046165 1.529564
v -0.924909 0.046165 1.529564
v -0.376052 0.046165 -0.741158
v -0.924909 0.046165 -0.741158
v -0.560754 0.086891 1.029836
v -0.824239 0.086891 1.029836
v -0.560754 0.086891 -0.264396
v -0.824239 0.086891 -0.264396
v -0.726163 1.432820 0.431919
v -0.815844 1.432820 0.431919
v -0.726163 1.432820 0.378764
v -0.815844 1.432820 0.378764
v -0.815844 1.139085 0.492633
v -0.815844 1.139085 0.311120
v -0.726163 1.139085 0.492633
v -0.726163 1.139085 0.311120
v -0.663135 1.432820 0.378764
v -0.663135 1.432820 0.431919
v -0.663135 1.139085 0.492633
v -0.663135 1.139085 0.311120
v -0.663135 1.432820 0.378764
v -0.663135 1.432820 0.431919
v -0.663135 1.139085 0.492633
v -0.663135 1.139085 0.311120
v -0.663135 1.696235 -0.195453
v -0.663135 1.696235 1.004779
v -0.663135 0.922147 1.003496
v -0.663135 0.922147 -0.197241
v -0.517363 0.334122 2.038779
v -0.517363 0.334122 -1.271958
v -0.517363 2.237784 2.052691
v -0.517363 0.334122 2.038779
v -0.629105 1.696235 -0.195453
v -0.629105 1.696235 1.004779
v -0.629105 0.922147 1.003496
v -0.629105 0.922147 -0.197241
v -0.663135 1.432820 0.378764
v -0.663135 1.432820 0.431919
v -0.629105 1.444999 0.362660
v -0.629105 1.444999 0.452059
v -0.629105 1.126906 0.554170
v -0.629105 1.126906 0.248894
v -0.517363 2.237784 -1.252571
v -0.517363 0.334122 -1.271958
v -0.517363 2.237784 0.931376
v -0.517363 2.237784 -0.038156
v -0.473153 0.278065 2.135094
v -0.473153 0.278065 -1.370624
v -0.473153 2.293841 2.149825
v -0.473153 0.278065 2.135094
v -0.473153 2.293841 -1.350096
v -0.473153 0.278065 -1.370624
v -0.473153 2.293841 0.962472
v -0.473153 2.293841 -0.064159
v -0.473153 2.293841 -1.350096
v -0.473153 0.278065 -1.370624
v -0.473153 0.278065 2.135094
v -0.473153 2.293841 2.149825
v -0.473153 0.278065 -1.370624
v -0.473153 0.278065 2.135094
v -0.473153 2.293841 0.962472
v -0.473153 2.293841 -0.064159
v -0.473153 2.317839 -1.391846
v -0.473153 0.254067 -1.412863
v -0.473153 0.254067 2.176327
v -0.473153 2.317839 2.191408
v -0.473153 0.254067 -1.412863
v -0.473153 0.254067 2.176327
v -0.473153 2.317839 0.975784
v -0.473153 2.317839 -0.075292
v -0.424410 2.273978 -1.348429
v -0.424410 0.253621 -1.369004
v -0.424410 0.254388 2.132467
v -0.424410 2.273978 2.147225
v -0.424410 0.297928 -1.412863
v -0.424410 0.297928 2.176327
v -0.424410 2.273978 0.975784
v -0.424410 2.273978 -0.075292
v -0.424410 2.317839 -1.391846
v -0.424410 0.254067 -1.412863
v -0.424410 0.254067 2.176327
v -0.424410 2.317839 2.191408
v -0.424410 0.254067 -1.412863
v -0.424410 0.254067 2.176327
v -0.424410 2.317839 0.975784
v -0.424410 2.317839 -0.075292
v -0.424410 2.273978 -1.348429
v -0.424410 0.253621 -1.369004
v -0.424410 0.254388 2.132467
v -0.424410 2.273978 2.147225
v -0.424410 0.297928 -1.412863
v -0.424410 0.297928 2.176327
v -0.424410 2.273978 0.975784
v -0.424410 2.273978 -0.075292
v -0.441233 2.273978 -1.348429
v -0.441233 0.253621 -1.369004
v -0.441233 0.254388 2.132467
v -0.441233 2.273978 2.147225
v -0.441233 0.297928 -1.412863
v -0.441233 0.297928 2.176327
v -0.441233 2.273978 0.975784
v -0.441233 2.273978 -0.075292
v -0.517363 0.334122 0.383411
v -0.517363 1.285953 -1.262265
vn -0.0000 -0.0000 -0.0000
vn -0.0000 -1.0000 -0.0000
vn 1.0000 -0.0000 -0.0000
vn -0.0000 -0.0000 -1.0000
vn -0.0000 1.0000 -0.0000
vn -0.0000 -0.0000 1.0000
vn -0.0000 1.0000 0.0001
vn -0.0000 -0.7035 -0.7107
vn -0.0000 -0.7097 0.7045
vn -1.0000 -0.0000 -0.0000
vn -0.0000 1.0000 -0.0001
vn 0.0003 1.0000 -0.0000
vn -0.0000 0.0023 -1.0000
vn -0.0000 -0.0017 1.0000
vn -0.6105 -0.7198 0.3304
vn -0.9961 -0.0162 0.0863
vn -0.9833 0.1821 -0.0000
vn -0.9095 -0.0030 0.4157
vn -0.7852 0.6193 -0.0000
vn 0.6875 0.6608 0.3011
vn -0.9876 -0.1571 -0.0079
vn -0.9945 0.0008 -0.1043
vn -0.9117 0.0042 -0.4109
vn -0.7852 -0.6193 -0.0000
vn -0.0000 0.9967 0.0812
vn 0.2153 0.9765 -0.0000
vn -0.3750 0.9270 -0.0000
vn -0.0000 0.9964 -0.0851
vn -0.0000 0.2024 0.9793
vn -0.0000 0.2244 -0.9745
vn 0.9995 0.0310 -0.0000
vn -0.0000 0.0102 -0.9999
vn -0.0000 -0.0073 1.0000
vn -0.0000 0.0073 -1.0000
vn -0.0000 -0.0102 0.9999
vt 0.717900 0.705343
vt 0.717900 0.544657
vt 0.000000 0.000000
vt 0.717900 0.625000
vt 0.717955 0.544686
vt 0.717956 0.546670
vt 0.017750 0.015551
vt 0.015966 0.015097
vt 0.702653 0.690352
vt 0.700627 0.531994
vt 0.717799 0.703284
vt 0.032885 0.026365
vt 1.840192 0.696600
vt 1.046371 1.040923
vt 0.391009 1.325189
vt -0.339403 1.642007
vt -0.850487 0.316041
vt -0.866617 0.356403
vt 1.371299 -0.614301
vt 1.332538 -0.631442
vt 0.200451 0.527041
vt 0.252052 0.527159
vt 0.306271 0.645052
vt 0.175860 0.685513
vt 0.245777 0.481274
vt 0.198613 0.513604
vt 0.134372 0.382104
vt 0.264765 0.341516
vt 0.000013 0.999987
vt 0.000013 0.392081
vt 0.016431 0.392081
vt 0.016430 0.999987
vt 0.133182 0.373506
vt 0.263576 0.332918
vt 0.000013 0.000013
vt 0.016431 0.000013
vt 0.490468 0.343120
vt 0.490468 0.704282
vt 0.497292 0.704282
vt 0.497292 0.343120
vt 0.165663 0.703246
vt 0.264259 0.585933
vt 0.402351 0.972462
vt 0.082480 0.973143
vt 0.067654 0.689112
vt 0.043265 0.435722
vt 0.014115 0.137145
vt 0.192077 0.529003
vt 0.206583 0.536239
vt 0.636188 0.422585
vt 0.395413 0.422585
vt 0.485513 0.484173
vt 0.546728 0.484173
vt 0.411892 0.999932
vt 0.071863 0.999933
vt 0.030576 0.431745
vt 0.000067 0.114644
vt 0.311397 0.693085
vt 0.402537 0.972326
vt 0.285448 0.493568
vt 0.442075 0.113427
vt 0.422303 0.542889
vt 0.166580 0.084112
vt 0.322847 0.029858
vt 0.055851 0.699364
vt 0.328126 0.000068
vt 0.455599 0.089113
vt 0.413732 0.998586
vt 0.782100 0.544657
vt 0.782100 0.705343
vt 0.375000 0.750000
vt 0.625000 0.750000
vt 0.625000 1.000000
vt 0.375000 1.000000
vt 0.375000 0.000000
vt 0.625000 0.000000
vt 0.625000 0.250000
vt 0.375000 0.250000
vt 0.125000 0.500000
vt 0.375000 0.500000
vt 0.125000 0.750000
vt 0.625000 0.500000
vt 0.700446 0.713733
vt 0.799554 0.713733
vt 0.875000 0.750000
vt 0.700446 0.536267
vt 0.799554 0.536267
vt 0.875000 0.500000
vt 0.496879 0.940607
vt 0.496879 0.951938
vt 0.496879 -0.010859
vt 0.510403 0.951938
vt 0.510403 -0.010859
vt 0.308404 0.706735
vt -0.021026 0.706735
vt -0.032563 0.713173
vt 0.304710 0.713173
vt -0.016939 0.166005
vt 0.955718 0.166005
vt 0.967437 0.159568
vt -0.028379 0.159568
vt 0.950022 0.706735
vt 0.961606 0.713173
vt 0.593241 0.706735
vt 0.596330 0.713173
vt 0.496879 0.159568
vt 0.496879 0.713173
vt 0.510403 0.713173
vt 0.510403 0.159568
vt 0.496879 0.946301
vt 0.496879 0.593136
vt 0.510403 0.593136
vt 0.510403 0.946301
vt 0.496879 0.311186
vt 0.510403 0.311186
vt 0.496879 -0.014905
vt 0.510403 -0.014905
vt 0.962960 0.775649
vt 0.968397 0.215104
vt 0.979989 0.215228
vt 0.974434 0.787819
vt 0.043016 0.215317
vt 0.039116 0.775649
vt 0.027439 0.787819
vt 0.031425 0.215228
vt 0.979989 0.227397
vt 0.031425 0.227397
vt 0.348708 0.775649
vt 0.626490 0.775649
vt 0.626490 0.787819
vt 0.348708 0.787819
s 0
usemtl Eco_Friendly
f 27/1/1 28/2/1 32/2/1 31/1/1
f 23/1/2 24/2/2 28/2/2 27/1/2
f 52/2/3 112/2/3 51/2/3 54/3/3 53/3/3 39/3/3 40/1/3 37/1/3 111/4/3 38/2/3
f 30/1/3 29/2/3 45/2/3 46/1/3
f 58/3/4 55/3/4 68/3/4 65/3/4
f 61/3/3 57/3/3 66/3/3 69/3/3
f 55/1/3 56/2/3 67/2/3 68/1/3
f 59/2/3 62/3/3 70/3/1 63/2/1
f 56/3/4 60/3/4 64/3/4 67/3/4
f 62/3/1 61/3/1 69/3/3 70/3/1
f 57/3/5 58/1/6 65/1/7 66/3/4
f 60/2/7 59/2/6 63/2/5 64/2/6
f 65/3/4 68/3/5 76/3/4 73/3/5
f 83/5/7 80/6/4 96/6/5 99/5/6
f 73/3/4 76/3/5 92/3/4 89/3/5
f 75/3/4 72/3/5 88/3/4 91/3/5
f 85/7/1 82/8/1 98/8/1 101/7/1
f 84/9/1 83/5/1 99/5/1 100/9/1
f 80/6/7 79/10/6 95/10/5 96/6/6
f 81/11/7 84/9/6 100/9/5 97/11/6
f 79/10/1 86/12/1 102/12/1 95/10/1
f 86/12/1 85/7/1 101/7/1 102/12/1
f 82/8/5 81/11/6 97/11/7 98/8/4
f 103/13/3 110/14/3 109/15/3 106/16/3 105/17/3 108/18/3 107/19/3 104/20/3
f 99/5/8 96/6/8 104/6/8 107/5/8
f 97/11/9 100/9/9 108/9/9 105/11/9
usemtl Plastico_gris
f 30/21/10 31/22/10 35/23/10 34/24/10
f 26/1/11 27/1/4 31/1/5 30/1/4
f 28/2/7 25/2/4 29/2/12 32/2/6
f 25/2/1 26/1/1 30/1/1 29/2/1
f 32/25/10 29/26/10 33/27/10 36/28/10
f 29/26/10 30/21/10 34/24/10 33/27/10
f 31/22/10 32/25/10 36/28/10 35/23/10
f 33/29/5 34/30/5 42/31/5 41/32/5
f 36/28/13 33/27/13 41/33/13 44/34/13
f 34/30/14 35/35/14 43/36/14 42/31/14
f 35/37/2 36/38/2 44/39/2 43/40/2
f 50/2/15 44/2/15 52/2/15 38/2/15
f 42/41/16 49/42/16 40/43/16 39/44/16
f 53/45/17 54/46/17 51/47/17 41/33/17 48/48/17 47/49/17 42/41/17 39/44/17
f 44/50/10 43/51/10 49/52/10 50/53/10
f 39/44/18 40/43/18 58/54/18 57/55/18
f 51/47/19 54/46/19 62/56/19 59/57/19
f 49/42/20 43/58/20 37/59/20 40/43/20
f 43/58/21 50/60/21 38/61/21 111/62/21 37/59/21
f 44/34/22 41/33/22 51/47/22 112/63/22 52/64/22
f 53/45/19 39/44/19 57/55/19 61/65/19
f 54/46/19 53/45/19 61/65/19 62/56/19
f 52/64/23 112/63/23 51/47/23 59/57/23 60/66/23
f 37/59/24 111/62/24 38/61/24 56/67/24 55/68/24
usemtl Aluminio_cepillado
f 22/69/10 21/70/10 18/70/10 20/69/10
f 4/71/6 9/72/6 10/73/6 8/74/6
f 8/75/10 10/76/10 12/77/10 6/78/10
f 6/79/2 2/80/2 4/71/2 8/81/2
f 2/80/3 11/82/3 9/72/3 4/71/3
f 6/78/4 12/77/4 11/82/4 2/80/4
f 13/83/25 14/84/25 10/85/25 9/72/25
f 15/86/26 13/83/26 9/72/26 11/82/26
f 14/84/27 16/87/27 12/88/27 10/85/27
f 16/87/28 15/86/28 11/82/28 12/88/28
f 3/1/5 7/70/5 14/84/5 13/83/5
f 1/2/5 3/1/5 13/83/5 15/86/5
f 7/70/5 5/69/5 16/87/5 14/84/5
f 5/69/5 1/2/5 15/86/5 16/87/5
f 19/2/5 20/69/5 18/70/5 17/1/5
f 21/70/29 23/1/29 17/1/29 18/70/29
f 24/2/30 22/69/30 20/69/30 19/2/30
f 24/2/30 19/2/30 25/2/30 28/2/30
f 3/1/31 1/2/31 24/2/31 23/1/31
f 1/2/4 5/69/4 22/69/4 24/2/4
f 7/70/6 3/1/6 23/1/6 21/70/6
f 5/69/10 7/70/10 21/70/10 22/69/10
f 19/2/5 17/1/5 26/1/5 25/2/5
f 17/1/29 23/1/29 27/1/29 26/1/29
f 67/89/4 64/89/5 72/90/6 75/90/5
f 76/91/2 75/90/2 91/92/2 92/93/2
f 69/94/10 66/95/10 74/96/10 77/97/10
f 68/98/10 67/99/10 75/100/10 76/101/10
f 64/99/10 63/102/10 71/103/10 72/100/10
f 63/102/10 70/104/10 78/105/10 71/103/10
f 70/104/10 69/94/10 77/97/10 78/105/10
f 66/95/10 65/98/10 73/101/10 74/96/10
f 72/106/32 71/107/32 87/108/32 88/109/32
f 71/110/5 78/111/5 94/112/5 87/113/5
f 78/111/5 77/114/5 93/115/5 94/112/5
f 74/107/33 73/106/33 89/109/33 90/108/33
f 77/114/5 74/116/5 90/117/5 93/115/5
f 79/118/3 80/119/3 88/120/3 87/121/3
f 81/122/3 82/123/3 90/124/3 89/125/3
f 83/126/3 84/127/3 92/125/3 91/120/3
f 85/128/3 86/129/3 94/130/3 93/131/3
f 82/123/3 85/128/3 93/131/3 90/124/3
f 86/129/3 79/118/3 87/121/3 94/130/3
f 80/119/10 83/126/10 91/120/10 88/120/10
f 84/127/10 81/122/10 89/125/10 92/125/10
f 98/8/34 97/11/34 105/11/34 106/8/34
f 101/7/2 98/8/2 106/8/2 109/7/2
f 100/9/5 99/5/5 107/5/5 108/9/5
f 96/6/35 95/10/35 103/10/35 104/6/35
f 95/10/2 102/12/2 110/12/2 103/10/2
f 102/12/2 101/7/2 109/7/2 110/12/2
l 47 41
l 42 48
