# Blender 4.0.2
# www.blender.org
mtllib puertaMujer.mtl
o Cube
v -1.151174 -0.938874 0.187657
v -1.151174 -0.563560 0.187657
v -1.151174 -0.938874 -0.187657
v -1.151174 -0.563560 -0.187657
v -0.775860 -0.938874 0.187657
v -0.775860 -0.563560 0.187657
v -0.775860 -0.938874 -0.187657
v -0.775860 -0.563560 -0.187657
v -1.134744 -0.840389 0.167160
v -1.134744 -0.662045 0.167160
v -1.134744 -0.840389 -0.167160
v -1.134744 -0.662045 -0.167160
v -0.073735 -0.840389 0.167160
v -0.073735 -0.662045 0.167160
v -0.073735 -0.840389 -0.167160
v -0.073735 -0.662045 -0.167160
vn -1.0000 -0.0000 -0.0000
vn -0.0000 -0.0000 -1.0000
vn 1.0000 -0.0000 -0.0000
vn -0.0000 -0.0000 1.0000
vn -0.0000 -1.0000 -0.0000
vn -0.0000 1.0000 -0.0000
vt 0.375000 0.000000
vt 0.625000 0.000000
vt 0.625000 0.250000
vt 0.375000 0.250000
vt 0.625000 0.500000
vt 0.375000 0.500000
vt 0.625000 0.750000
vt 0.375000 0.750000
vt 0.625000 1.000000
vt 0.375000 1.000000
vt 0.125000 0.500000
vt 0.125000 0.750000
vt 0.875000 0.500000
vt 0.875000 0.750000
s 0
usemtl Material.007
f 1/1/1 2/2/1 4/3/1 3/4/1
f 3/4/2 4/3/2 8/5/2 7/6/2
f 7/6/3 8/5/3 6/7/3 5/8/3
f 5/8/4 6/7/4 2/9/4 1/10/4
f 3/11/5 7/6/5 5/8/5 1/12/5
f 8/5/6 4/13/6 2/14/6 6/7/6
f 9/1/1 10/2/1 12/3/1 11/4/1
f 11/4/2 12/3/2 16/5/2 15/6/2
f 15/6/3 16/5/3 14/7/3 13/8/3
f 13/8/4 14/7/4 10/9/4 9/10/4
f 11/11/5 15/6/5 13/8/5 9/12/5
f 16/5/6 12/13/6 10/14/6 14/7/6
o Cubo.003
v -2.011108 -4.340065 0.045542
v -2.011108 -4.340065 -0.045543
v -2.011108 3.087041 0.045542
v 4.244191 -4.340065 0.045542
v 4.244191 -4.340065 -0.045543
v 4.244191 3.087041 0.045542
v 4.244191 3.087041 -0.045543
v -2.011108 3.087041 -0.045543
v -2.011108 -4.340065 0.045542
v -2.011108 -4.340065 -0.045543
v -2.011108 3.087041 0.045542
v 4.244191 -4.340065 0.045542
v 4.244191 -4.340065 -0.045543
v 4.244191 3.087041 0.045542
v 4.244191 3.087041 -0.045543
v -2.011108 3.087041 -0.045543
vn -1.0000 -0.0000 -0.0000
vn -0.0000 -1.0000 -0.0000
vn -0.0000 -0.0000 1.0000
vn 1.0000 -0.0000 -0.0000
vn -0.0000 1.0000 -0.0000
vn -0.0000 -0.0000 -1.0000
vt 0.375000 0.000000
vt 0.625000 0.000000
vt 0.625000 0.250000
vt 0.375000 0.250000
vt 0.125000 0.500000
vt 0.375000 0.500000
vt 0.375000 0.750000
vt 0.125000 0.750000
vt 0.625000 0.750000
vt 0.625000 1.000000
vt 0.375000 1.000000
vt 0.625000 0.500000
vt 0.875000 0.500000
vt 0.875000 0.750000
s 1
usemtl Material.008
f 17/15/7 19/16/7 24/17/7 18/18/7
f 18/19/8 21/20/8 20/21/8 17/22/8
f 20/21/9 22/23/9 19/24/9 17/25/9
f 21/20/10 23/26/10 22/23/10 20/21/10
f 23/26/11 24/27/11 19/28/11 22/23/11
f 18/18/12 24/17/12 23/26/12 21/20/12
f 25/15/10 26/18/10 32/17/10 27/16/10
f 26/19/11 25/22/11 28/21/11 29/20/11
f 28/21/12 25/25/12 27/24/12 30/23/12
f 29/20/7 28/21/7 30/23/7 31/26/7
f 31/26/8 30/23/8 27/28/8 32/27/8
f 26/18/9 29/20/9 31/26/9 32/17/9
o Plane
v 0.849377 1.363365 0.138045
v 1.497792 1.363365 0.138045
v 0.849377 2.456180 0.138045
v 1.497792 2.456180 0.138045
vn -0.0000 -0.0000 1.0000
vt 0.152513 0.117510
vt 0.446834 0.117510
vt 0.447487 0.882490
vt 0.152513 0.882490
s 0
usemtl Material.009
f 33/29/13 34/30/13 36/31/13 35/32/13
