# Blender 3.6.2
# www.blender.org
mtllib Silla.mtl
o Silla
v -0.560420 0.819572 3.676904
v -0.540412 0.950934 3.658992
v -0.575704 0.819572 3.187547
v -0.575704 0.950934 3.187547
v 0.524264 0.819572 3.677124
v 0.502964 0.950934 3.690711
v 0.549689 0.819572 3.187547
v 0.502964 0.950934 3.187547
v -0.560420 0.819572 3.572562
v -0.540412 0.950934 3.587894
v 0.524264 0.819572 3.572244
v 0.502964 0.950934 3.561348
v -0.408595 0.819572 3.187547
v -0.408595 0.950934 3.187547
v -0.423880 0.819572 3.676904
v -0.443888 0.950934 3.658992
v -0.443888 0.950934 3.587894
v -0.423880 0.819572 3.572562
v 0.286377 0.950934 3.187547
v 0.357390 0.819572 3.677158
v 0.286377 0.950934 3.561348
v 0.341073 0.819572 3.187547
v 0.286377 0.950934 3.690711
v 0.357390 0.819572 3.572338
v 0.341073 0.819572 3.690711
v 0.549689 0.819572 3.690711
v 0.549689 0.819572 3.561348
v 0.341073 0.819572 3.561348
v -0.575704 0.819572 3.561348
v -0.575704 0.819572 3.690711
v -0.408595 0.819572 3.561348
v -0.408595 0.819572 3.690711
v 0.357390 0.819572 3.677158
v 0.524264 0.819572 3.677124
v 0.524264 0.819572 3.572244
v 0.357390 0.819572 3.572338
v -0.560420 0.819572 3.572562
v -0.560420 0.819572 3.676904
v -0.423880 0.819572 3.572562
v -0.423880 0.819572 3.676904
v 0.558967 0.007886 3.672517
v 0.677217 0.007886 3.672431
v 0.677217 0.007886 3.559635
v 0.558967 0.007886 3.559880
v -0.560420 0.007886 3.560021
v -0.560420 0.007886 3.672209
v -0.423880 0.007886 3.560021
v -0.423880 0.007886 3.672209
v -0.408595 0.950934 3.690711
v -0.575704 0.950934 3.690711
v -0.575704 0.950934 3.561348
v -0.408595 0.950934 3.561348
v -0.443888 0.950934 3.658992
v -0.540412 0.950934 3.658992
v -0.540412 0.950934 3.587894
v -0.443888 0.950934 3.587894
v -0.534431 2.084679 3.657268
v -0.630955 2.084679 3.657268
v -0.630955 2.084679 3.584697
v -0.534431 2.084679 3.584697
v -0.534431 2.084679 3.657268
v -0.630955 2.084679 3.657268
v -0.630955 2.084679 3.584697
v -0.534431 2.084679 3.584697
v -0.619684 1.943543 3.659296
v -0.619684 1.943543 3.588440
v -0.523160 1.943543 3.588440
v -0.523160 1.943543 3.659296
v -0.570463 1.327225 3.588440
v -0.473939 1.327225 3.588440
v -0.570463 1.327225 3.659296
v -0.473939 1.327225 3.659296
v -0.619684 1.943543 3.176421
v -0.523160 1.943543 3.176421
v -0.570463 1.327225 3.176421
v -0.473939 1.327225 3.176421
v 0.612829 0.265162 3.572504
v 0.511180 0.265162 3.572504
v 0.498956 0.249531 3.677188
v 0.631681 0.249531 3.677169
v 0.490727 0.347522 3.572504
v 0.610270 0.363154 3.677186
v 0.597309 0.347522 3.572504
v 0.470738 0.363154 3.677165
v -0.560420 0.255564 3.676952
v -0.423880 0.255564 3.676952
v -0.544788 0.271196 3.572791
v -0.439511 0.271196 3.572791
v -0.423880 0.366220 3.676952
v -0.439511 0.350588 3.572791
v -0.560420 0.366220 3.676952
v -0.544788 0.350588 3.572791
v 0.610270 0.363154 3.572401
v 0.631681 0.249531 3.572354
v 0.498956 0.249531 3.572405
v 0.470738 0.363154 3.572343
v -0.560420 0.366220 3.572669
v -0.560420 0.255564 3.572669
v -0.423880 0.255564 3.572669
v -0.423880 0.366220 3.572669
v 0.597309 0.347522 3.187547
v 0.612829 0.265162 3.187547
v 0.511180 0.265162 3.187547
v 0.490727 0.347522 3.187547
v -0.544788 0.350588 3.188235
v -0.544788 0.271196 3.188235
v -0.439511 0.271196 3.188235
v -0.439511 0.350588 3.188235
v -0.560420 0.819572 2.698189
v -0.540412 0.950934 2.716101
v 0.524264 0.819572 2.697970
v 0.502964 0.950934 2.684382
v -0.560420 0.819572 2.802531
v -0.540412 0.950934 2.787199
v 0.524264 0.819572 2.802850
v 0.502964 0.950934 2.813745
v -0.423880 0.819572 2.698189
v -0.443888 0.950934 2.716101
v -0.443888 0.950934 2.787199
v -0.423880 0.819572 2.802531
v 0.357390 0.819572 2.697935
v 0.286377 0.950934 2.813745
v 0.286377 0.950934 2.684382
v 0.357390 0.819572 2.802755
v 0.341073 0.819572 2.684382
v 0.549689 0.819572 2.684382
v 0.549689 0.819572 2.813745
v 0.341073 0.819572 2.813745
v -0.575704 0.819572 2.813745
v -0.575704 0.819572 2.684382
v -0.408595 0.819572 2.813745
v -0.408595 0.819572 2.684382
v 0.357390 0.819572 2.697935
v 0.524264 0.819572 2.697970
v 0.524264 0.819572 2.802850
v 0.357390 0.819572 2.802755
v -0.560420 0.819572 2.802531
v -0.560420 0.819572 2.698189
v -0.423880 0.819572 2.802531
v -0.423880 0.819572 2.698189
v 0.558967 0.007886 2.702577
v 0.677217 0.007886 2.702663
v 0.677217 0.007886 2.815458
v 0.558967 0.007886 2.815213
v -0.560420 0.007886 2.815072
v -0.560420 0.007886 2.702885
v -0.423880 0.007886 2.815072
v -0.423880 0.007886 2.702885
v -0.408595 0.950934 2.684382
v -0.575704 0.950934 2.684382
v -0.575704 0.950934 2.813745
v -0.408595 0.950934 2.813745
v -0.443888 0.950934 2.716101
v -0.540412 0.950934 2.716101
v -0.540412 0.950934 2.787199
v -0.443888 0.950934 2.787199
v -0.534431 2.084679 2.717825
v -0.630955 2.084679 2.717825
v -0.630955 2.084679 2.790396
v -0.534431 2.084679 2.790396
v -0.534431 2.084679 2.717825
v -0.630955 2.084679 2.717825
v -0.630955 2.084679 2.790396
v -0.534431 2.084679 2.790396
v -0.619684 1.943543 2.715797
v -0.619684 1.943543 2.786653
v -0.523160 1.943543 2.786653
v -0.523160 1.943543 2.715797
v -0.570463 1.327225 2.786653
v -0.473939 1.327225 2.786653
v -0.570463 1.327225 2.715797
v -0.473939 1.327225 2.715797
v -0.619684 1.943543 3.198672
v -0.523160 1.943543 3.198672
v -0.570463 1.327225 3.198672
v -0.473939 1.327225 3.198672
v 0.612829 0.265162 2.802589
v 0.511180 0.265162 2.802589
v 0.498956 0.249531 2.697906
v 0.631681 0.249531 2.697924
v 0.490727 0.347522 2.802589
v 0.610270 0.363154 2.697907
v 0.597309 0.347522 2.802589
v 0.470738 0.363154 2.697928
v -0.560420 0.255564 2.698142
v -0.423880 0.255564 2.698142
v -0.544788 0.271196 2.802303
v -0.439511 0.271196 2.802303
v -0.423880 0.366220 2.698142
v -0.439511 0.350588 2.802303
v -0.560420 0.366220 2.698142
v -0.544788 0.350588 2.802303
v 0.610270 0.363154 2.802693
v 0.631681 0.249531 2.802739
v 0.498956 0.249531 2.802688
v 0.470738 0.363154 2.802751
v -0.560420 0.366220 2.802425
v -0.560420 0.255564 2.802425
v -0.423880 0.255564 2.802425
v -0.423880 0.366220 2.802425
v -0.544788 0.350588 3.186858
v -0.544788 0.271196 3.186858
v -0.439511 0.271196 3.186858
v -0.439511 0.350588 3.186858
vn -1.0000 -0.0000 -0.0000
vn -0.0000 -0.0000 -1.0000
vn 0.9422 0.3351 -0.0000
vn -0.0000 -0.0000 1.0000
vn -0.0000 1.0000 -0.0000
vn -0.0000 -1.0000 -0.0000
vn -0.0000 -0.0191 0.9998
vn -0.0012 0.0519 -0.9987
vn 0.0004 -0.0194 0.9998
vn 1.0000 -0.0000 -0.0000
vn -0.0000 0.0510 -0.9987
vn -0.9705 -0.2410 -0.0000
vn 0.9827 0.1852 -0.0000
vn -0.9968 -0.0796 -0.0000
vn -0.0000 -0.0265 -0.9996
vn -0.0000 0.0144 0.9999
vn 0.9968 0.0796 -0.0000
vn -0.0000 0.0015 -1.0000
vn -0.0000 -0.0008 1.0000
vn -0.0001 -0.0002 -1.0000
vn -0.0000 0.0001 1.0000
vn -0.0000 -0.0002 -1.0000
vn -0.0080 -0.0013 -1.0000
vn -0.0002 0.0079 -1.0000
vn 0.0081 0.0017 -1.0000
vn 0.0002 -0.0084 -1.0000
vn 0.0078 -0.0000 -1.0000
vn -0.0000 0.0078 -1.0000
vn -0.0078 -0.0000 -1.0000
vn -0.0000 -0.0078 -1.0000
vn -0.0000 -0.0191 -0.9998
vn -0.0012 0.0519 0.9987
vn 0.0004 -0.0194 -0.9998
vn -0.0000 0.0510 0.9987
vn -0.0000 -0.0265 0.9996
vn -0.0000 0.0144 -0.9999
vn -0.0000 0.0015 1.0000
vn -0.0000 -0.0008 -1.0000
vn -0.0001 -0.0002 1.0000
vn -0.0000 0.0001 -1.0000
vn -0.0000 -0.0002 1.0000
vn -0.0080 -0.0013 1.0000
vn -0.0002 0.0079 1.0000
vn 0.0081 0.0017 1.0000
vn 0.0002 -0.0084 1.0000
vn 0.0078 -0.0000 1.0000
vn -0.0000 0.0078 1.0000
vn -0.0078 -0.0000 1.0000
vn -0.0000 -0.0078 1.0000
vt 0.375000 0.038468
vt 0.625000 0.038468
vt 0.625000 0.250000
vt 0.375000 0.250000
vt 0.375000 0.476479
vt 0.625000 0.476479
vt 0.625000 0.500000
vt 0.375000 0.500000
vt 0.375000 0.711532
vt 0.625000 0.711532
vt 0.625000 0.750000
vt 0.375000 0.750000
vt 0.375000 0.973487
vt 0.625000 0.973487
vt 0.625000 1.000000
vt 0.375000 1.000000
vt 0.372620 0.715288
vt 0.372620 0.746244
vt 0.854086 0.741161
vt 0.854086 0.720371
vt 0.000049 0.500000
vt 0.052409 0.500000
vt 0.052409 0.657208
vt 0.000049 0.657208
vt 0.351479 0.500000
vt 0.351479 0.711532
vt 0.375000 0.000000
vt 0.625000 0.000000
vt 0.125000 0.500000
vt 0.151513 0.500000
vt 0.151513 0.711532
vt 0.125000 0.711532
vt 0.648521 0.500000
vt 0.848487 0.500000
vt 0.848487 0.711532
vt 0.648521 0.711532
vt 0.848487 0.750000
vt 0.648521 0.750000
vt 0.063013 0.676610
vt 0.100705 0.674048
vt 0.100707 0.674099
vt 0.063015 0.676661
vt 0.375000 0.773521
vt 0.625000 0.773521
vt 0.625000 0.276513
vt 0.375000 0.276513
vt 0.090709 0.304066
vt 0.104360 0.665904
vt 0.057843 0.669066
vt 0.044192 0.307228
vt 0.353859 0.746244
vt 0.351480 0.750000
vt 0.353859 0.715288
vt 0.127425 0.715360
vt 0.127425 0.746172
vt 0.125000 0.750000
vt 0.149088 0.715360
vt 0.149088 0.746172
vt 0.151513 0.750000
vt 0.048878 0.299514
vt 0.086398 0.296963
vt 0.127425 0.746172
vt 0.041028 0.091432
vt 0.003508 0.093983
vt 0.000061 0.002611
vt 0.037581 0.000061
vt 0.011359 0.302064
vt 0.011357 0.302014
vt 0.048876 0.299463
vt 0.086396 0.296913
vt 0.025322 0.679172
vt 0.025324 0.679223
vt 0.353859 0.715288
vt 0.007582 0.853697
vt 0.037560 0.851659
vt 0.026770 0.925856
vt 0.000061 0.927672
vt 0.149088 0.746172
vt 0.353859 0.746244
vt 0.869401 0.741161
vt 0.875000 0.750000
vt 0.869401 0.720371
vt 0.875000 0.711532
vt 0.041351 0.668373
vt 0.011107 0.668373
vt 0.869401 0.720371
vt 0.041368 0.668414
vt 0.011125 0.668414
vt 0.854086 0.720371
vt 0.854086 0.741161
vt 0.854086 0.720371
vt 0.869401 0.741161
vt 0.869401 0.720371
vt 0.050784 0.826669
vt 0.020541 0.826669
vt 0.050784 0.999951
vt 0.020541 0.999951
vt -1.622797 2.449657
vt -1.622797 1.828749
vt -1.313557 1.828749
vt -1.313557 2.449657
vt 0.244505 0.826669
vt 0.244505 0.999951
vt 0.372620 0.746244
vt 0.042634 0.816778
vt 0.065902 0.822870
vt 0.060819 0.857749
vt 0.011118 0.818920
vt 0.370449 0.715288
vt 0.370393 0.715288
vt 0.353859 0.715288
vt 0.064820 0.855018
vt 0.068504 0.829736
vt 0.153946 0.852169
vt 0.150262 0.877451
vt 0.042568 0.132247
vt 0.005048 0.134797
vt 0.127425 0.715360
vt 0.356100 0.715288
vt 0.356044 0.715288
vt 0.129905 0.715360
vt 0.146608 0.715360
vt 0.146608 0.715360
vt 0.000049 0.342792
vt 0.052409 0.342792
vt 0.287460 0.735552
vt 0.287456 0.735583
vt 0.264192 0.729460
vt 0.264197 0.729429
vt 0.295094 0.500597
vt 0.323805 0.508155
vt 0.291178 0.731483
vt 0.262468 0.723926
vt 0.321406 0.502795
vt 0.298249 0.496699
vt -5.329478 1.498346
vt -5.343745 0.498346
vt -5.681196 0.498346
vt -5.643156 1.498346
vt 0.340169 0.374366
vt 0.348408 0.317971
vt 0.371565 0.324066
vt 0.363326 0.380461
vt 0.321410 0.502764
vt 0.344568 0.508859
vt 0.344563 0.508890
vt 0.298253 0.496668
vt 0.289094 0.927613
vt 0.275291 0.999939
vt 0.251061 0.984747
vt 0.261897 0.910561
vt 0.041351 0.331627
vt 0.011107 0.331627
vt 0.011107 0.331587
vt 0.041351 0.331587
vt 0.020523 0.173331
vt 0.050766 0.173331
vt 0.020523 0.000049
vt 0.050766 0.000049
vt -1.021017 2.449657
vt -1.330257 2.449657
vt -1.330257 1.828749
vt -1.021017 1.828749
vt 0.244488 0.000049
vt 0.244488 0.173331
vt 0.266990 0.875683
vt 0.238643 0.904437
vt 0.243726 0.869558
vt 0.295582 0.893610
vt 0.321648 0.757025
vt 0.235704 0.899885
vt 0.239388 0.874602
vt 0.336488 0.399557
vt 0.359646 0.405652
s 0
usemtl Madera
f 29/1/1 51/2/1 4/3/1 3/4/1
f 22/5/2 19/6/2 8/7/2 7/8/2
f 27/9/3 12/10/3 6/11/3 26/12/3
f 32/13/4 49/14/4 50/15/4 30/16/4
f 11/17/5 5/18/5 34/18/5 35/17/5
f 16/19/5 17/20/5 56/20/5 53/19/5
f 14/21/5 4/22/5 51/23/5 52/24/5
f 22/25/6 7/8/6 27/9/6 28/26/6
f 7/8/3 8/7/3 12/10/3 27/9/3
f 30/27/1 50/28/1 51/2/1 29/1/1
f 3/29/6 13/30/6 31/31/6 29/32/6
f 19/33/5 14/34/5 52/35/5 21/36/5
f 21/36/5 52/35/5 49/37/5 23/38/5
f 20/39/5 24/40/5 36/41/5 33/42/5
f 25/43/4 23/44/4 49/14/4 32/13/4
f 3/4/2 4/3/2 14/45/2 13/46/2
f 26/12/4 6/11/4 23/44/4 25/43/4
f 12/10/5 21/36/5 23/38/5 6/11/5
f 8/7/5 19/33/5 21/36/5 12/10/5
f 13/30/6 22/25/6 28/26/6 31/31/6
f 31/47/6 28/48/6 25/49/6 32/50/6
f 13/46/2 14/45/2 19/6/2 22/5/2
f 20/51/6 5/18/6 26/12/6 25/52/6
f 5/18/6 11/17/6 27/9/6 26/12/6
f 11/17/6 24/53/6 28/26/6 27/9/6
f 24/40/6 20/39/6 25/49/6 28/48/6
f 9/54/6 1/55/6 30/56/6 29/32/6
f 18/57/6 9/54/6 29/32/6 31/31/6
f 1/55/6 15/58/6 32/59/6 30/56/6
f 15/60/6 18/61/6 31/47/6 32/50/6
f 85/62/1 98/54/1 45/54/1 46/55/1
f 86/63/7 85/64/7 46/65/7 48/66/7
f 15/60/5 1/67/5 38/68/5 40/69/5
f 1/55/5 9/54/5 37/54/5 38/55/5
f 24/53/5 11/17/5 35/17/5 36/53/5
f 18/61/5 15/60/5 40/69/5 39/70/5
f 5/71/5 20/39/5 33/42/5 34/72/5
f 9/54/5 18/57/5 39/57/5 37/54/5
f 44/53/6 43/17/6 42/18/6 41/51/6
f 45/54/6 47/57/6 48/58/6 46/55/6
f 95/73/8 94/17/8 43/17/8 44/53/8
f 80/74/9 79/75/9 41/76/9 42/77/9
f 99/57/10 86/78/10 48/58/10 47/57/10
f 98/54/11 99/57/11 47/57/11 45/54/11
f 79/79/12 95/73/12 44/53/12 41/51/12
f 94/17/13 80/18/13 42/18/13 43/17/13
f 16/19/5 2/80/5 50/81/5 49/37/5
f 2/80/5 10/82/5 51/83/5 50/81/5
f 10/84/5 17/85/5 52/24/5 51/23/5
f 17/20/5 16/19/5 49/37/5 52/35/5
f 66/86/14 65/80/14 58/80/14 59/82/14
f 10/82/5 2/80/5 54/80/5 55/82/5
f 17/85/5 10/84/5 55/87/5 56/88/5
f 2/80/5 16/19/5 53/19/5 54/80/5
f 57/19/5 60/20/5 64/20/5 61/19/5
f 67/89/15 66/86/15 59/82/15 60/20/15
f 65/80/16 68/90/16 57/19/16 58/80/16
f 68/90/17 67/89/17 60/20/17 57/19/17
f 64/20/5 63/82/5 62/80/5 61/19/5
f 59/82/5 58/80/5 62/80/5 63/82/5
f 60/20/5 59/82/5 63/82/5 64/20/5
f 58/80/5 57/19/5 61/19/5 62/80/5
f 72/19/17 70/91/17 67/89/17 68/90/17
f 71/92/4 72/19/4 68/90/4 65/80/4
f 66/86/5 67/89/5 74/89/5 73/86/5
f 69/93/14 71/92/14 65/80/14 66/86/14
f 55/82/14 54/80/14 71/92/14 69/93/14
f 56/88/18 55/87/18 69/94/18 70/95/18
f 54/80/19 53/19/19 72/19/19 71/92/19
f 53/19/17 56/20/17 70/91/17 72/19/17
f 76/91/2 75/93/2 73/86/2 74/89/2
f 70/95/6 69/94/6 75/96/6 76/97/6
f 67/98/17 70/99/17 76/100/17 74/101/17
f 69/94/14 66/102/14 73/103/14 75/96/14
f 93/17/13 82/104/13 80/18/13 94/17/13
f 84/105/12 96/106/12 95/107/12 79/75/12
f 82/108/4 84/105/4 79/75/4 80/74/4
f 83/109/13 77/110/13 102/110/13 101/109/13
f 36/53/20 35/17/20 93/17/20 96/111/20
f 34/72/21 33/42/21 84/105/21 82/108/21
f 33/51/12 36/53/12 96/111/12 84/51/12
f 35/17/13 34/18/13 82/104/13 93/17/13
f 78/112/12 81/113/12 104/114/12 103/115/12
f 100/57/10 89/78/10 86/78/10 99/57/10
f 89/116/4 91/117/4 85/64/4 86/63/4
f 91/62/1 97/118/1 98/54/1 85/62/1
f 38/55/1 37/54/1 97/118/1 91/62/1
f 40/69/21 38/68/21 91/117/21 89/116/21
f 39/57/10 40/58/10 89/78/10 100/57/10
f 37/54/22 39/57/22 100/57/22 97/118/22
f 77/110/23 83/109/23 93/17/23 94/17/23
f 78/119/24 77/110/24 94/17/24 95/73/24
f 81/113/25 78/112/25 95/107/25 96/106/25
f 83/109/26 81/120/26 96/111/26 93/17/26
f 92/121/27 87/121/27 98/54/27 97/118/27
f 87/121/28 88/122/28 99/57/28 98/54/28
f 88/122/29 90/123/29 100/57/29 99/57/29
f 90/123/30 92/121/30 97/118/30 100/57/30
f 104/120/2 101/109/2 102/110/2 103/119/2
f 105/121/2 108/123/2 107/122/2 106/121/2
f 92/121/5 90/123/5 108/123/5 105/121/5
f 88/122/6 87/121/6 106/121/6 107/122/6
f 81/120/5 83/109/5 101/109/5 104/120/5
f 77/110/6 78/119/6 103/119/6 102/110/6
f 90/123/10 88/122/10 107/122/10 108/123/10
f 87/121/1 92/121/1 105/121/1 106/121/1
f 129/1/1 3/4/1 4/3/1 151/2/1
f 127/9/3 126/12/3 112/11/3 116/10/3
f 132/13/2 130/16/2 150/15/2 149/14/2
f 115/17/5 135/17/5 134/18/5 111/18/5
f 118/19/5 153/19/5 156/20/5 119/20/5
f 14/21/5 152/124/5 151/125/5 4/22/5
f 22/25/6 128/26/6 127/9/6 7/8/6
f 7/8/3 127/9/3 116/10/3 8/7/3
f 130/27/1 129/1/1 151/2/1 150/28/1
f 3/29/6 129/32/6 131/31/6 13/30/6
f 19/33/5 122/36/5 152/35/5 14/34/5
f 122/36/5 123/38/5 149/37/5 152/35/5
f 121/126/5 133/127/5 136/128/5 124/129/5
f 125/43/2 132/13/2 149/14/2 123/44/2
f 126/12/2 125/43/2 123/44/2 112/11/2
f 116/10/5 112/11/5 123/38/5 122/36/5
f 8/7/5 116/10/5 122/36/5 19/33/5
f 13/30/6 131/31/6 128/26/6 22/25/6
f 131/130/6 132/131/6 125/132/6 128/133/6
f 121/51/6 125/52/6 126/12/6 111/18/6
f 111/18/6 126/12/6 127/9/6 115/17/6
f 115/17/6 127/9/6 128/26/6 124/53/6
f 124/129/6 128/133/6 125/132/6 121/126/6
f 113/54/6 129/32/6 130/56/6 109/55/6
f 120/57/6 131/31/6 129/32/6 113/54/6
f 109/55/6 130/56/6 132/59/6 117/58/6
f 117/134/6 132/131/6 131/130/6 120/135/6
f 185/136/1 146/137/1 145/138/1 198/139/1
f 186/140/31 148/141/31 146/142/31 185/143/31
f 117/134/5 140/144/5 138/145/5 109/146/5
f 109/55/5 138/55/5 137/54/5 113/54/5
f 124/53/5 136/53/5 135/17/5 115/17/5
f 120/135/5 139/147/5 140/144/5 117/134/5
f 111/18/5 134/18/5 133/51/5 121/51/5
f 113/54/5 137/54/5 139/57/5 120/57/5
f 144/53/6 141/51/6 142/18/6 143/17/6
f 145/54/6 146/55/6 148/58/6 147/57/6
f 195/73/32 144/53/32 143/17/32 194/17/32
f 180/148/33 142/149/33 141/150/33 179/151/33
f 199/57/10 147/57/10 148/58/10 186/78/10
f 198/54/34 145/54/34 147/57/34 199/57/34
f 179/79/12 141/51/12 144/53/12 195/73/12
f 194/17/13 143/17/13 142/18/13 180/18/13
f 118/19/5 149/37/5 150/81/5 110/80/5
f 110/80/5 150/81/5 151/83/5 114/82/5
f 114/152/5 151/125/5 152/124/5 119/153/5
f 119/20/5 152/35/5 149/37/5 118/19/5
f 166/86/14 159/82/14 158/80/14 165/80/14
f 114/82/5 155/82/5 154/80/5 110/80/5
f 119/153/5 156/154/5 155/155/5 114/152/5
f 110/80/5 154/80/5 153/19/5 118/19/5
f 157/19/5 161/19/5 164/20/5 160/20/5
f 167/89/35 160/20/35 159/82/35 166/86/35
f 165/80/36 158/80/36 157/19/36 168/90/36
f 168/90/17 157/19/17 160/20/17 167/89/17
f 164/20/5 161/19/5 162/80/5 163/82/5
f 159/82/5 163/82/5 162/80/5 158/80/5
f 160/20/5 164/20/5 163/82/5 159/82/5
f 158/80/5 162/80/5 161/19/5 157/19/5
f 172/19/17 168/90/17 167/89/17 170/91/17
f 171/92/2 165/80/2 168/90/2 172/19/2
f 166/86/5 173/86/5 174/89/5 167/89/5
f 169/93/14 166/86/14 165/80/14 171/92/14
f 155/82/14 169/93/14 171/92/14 154/80/14
f 156/154/37 170/156/37 169/157/37 155/155/37
f 154/80/38 171/92/38 172/19/38 153/19/38
f 153/19/17 172/19/17 170/91/17 156/20/17
f 176/91/4 174/89/4 173/86/4 175/93/4
f 170/156/6 176/158/6 175/159/6 169/157/6
f 167/160/17 174/161/17 176/162/17 170/163/17
f 169/157/14 175/159/14 173/164/14 166/165/14
f 193/17/13 194/17/13 180/18/13 182/104/13
f 184/166/12 179/151/12 195/167/12 196/168/12
f 182/169/2 180/148/2 179/151/2 184/166/2
f 183/109/13 101/109/13 102/110/13 177/110/13
f 136/53/39 196/111/39 193/17/39 135/17/39
f 134/170/40 182/169/40 184/166/40 133/127/40
f 133/127/12 184/166/12 196/168/12 136/128/12
f 135/17/13 193/17/13 182/104/13 134/18/13
f 178/171/12 103/115/12 104/114/12 181/172/12
f 200/57/10 199/57/10 186/78/10 189/78/10
f 189/173/2 186/140/2 185/143/2 191/174/2
f 191/62/1 185/62/1 198/54/1 197/118/1
f 138/55/1 191/62/1 197/118/1 137/54/1
f 140/144/40 189/173/40 191/174/40 138/145/40
f 139/57/10 200/57/10 189/78/10 140/58/10
f 137/54/41 197/118/41 200/57/41 139/57/41
f 177/110/42 194/17/42 193/17/42 183/109/42
f 178/119/43 195/73/43 194/17/43 177/110/43
f 181/172/44 196/168/44 195/167/44 178/171/44
f 183/109/45 193/17/45 196/111/45 181/120/45
f 192/121/46 197/118/46 198/54/46 187/121/46
f 187/121/47 198/54/47 199/57/47 188/122/47
f 188/122/48 199/57/48 200/57/48 190/123/48
f 190/123/49 200/57/49 197/118/49 192/121/49
f 201/121/4 202/121/4 203/122/4 204/123/4
f 192/121/5 201/121/5 204/123/5 190/123/5
f 188/122/6 203/122/6 202/121/6 187/121/6
f 181/120/5 104/120/5 101/109/5 183/109/5
f 177/110/6 102/110/6 103/119/6 178/119/6
f 190/123/10 204/123/10 203/122/10 188/122/10
f 187/121/1 202/121/1 201/121/1 192/121/1
